<mxfile host="app.diagrams.net" agent="Mozilla/5.0 (Windows NT 10.0; Win64; x64) AppleWebKit/537.36 (KHTML, like Gecko) Chrome/134.0.0.0 Safari/537.36 Edg/134.0.0.0" version="26.2.1">
  <diagram name="Página-1" id="yorLX51tG9SyrCKMfYLo">
    <mxGraphModel dx="1036" dy="540" grid="1" gridSize="10" guides="1" tooltips="1" connect="1" arrows="1" fold="1" page="1" pageScale="1" pageWidth="827" pageHeight="1169" math="0" shadow="0">
      <root>
        <mxCell id="0" />
        <mxCell id="1" parent="0" />
        <mxCell id="JPXaZtPPH-2U7aTtFShc-19" style="edgeStyle=orthogonalEdgeStyle;rounded=0;orthogonalLoop=1;jettySize=auto;html=1;exitX=0;exitY=0.3333333333333333;exitDx=0;exitDy=0;exitPerimeter=0;entryX=1;entryY=0.5;entryDx=0;entryDy=0;" edge="1" parent="1" source="JPXaZtPPH-2U7aTtFShc-1" target="JPXaZtPPH-2U7aTtFShc-13">
          <mxGeometry relative="1" as="geometry" />
        </mxCell>
        <mxCell id="JPXaZtPPH-2U7aTtFShc-20" style="edgeStyle=orthogonalEdgeStyle;rounded=0;orthogonalLoop=1;jettySize=auto;html=1;exitX=0;exitY=1;exitDx=0;exitDy=0;exitPerimeter=0;entryX=1;entryY=0.5;entryDx=0;entryDy=0;" edge="1" parent="1" source="JPXaZtPPH-2U7aTtFShc-1" target="JPXaZtPPH-2U7aTtFShc-18">
          <mxGeometry relative="1" as="geometry" />
        </mxCell>
        <mxCell id="JPXaZtPPH-2U7aTtFShc-1" value="Gerente" style="shape=umlActor;verticalLabelPosition=bottom;verticalAlign=top;html=1;outlineConnect=0;" vertex="1" parent="1">
          <mxGeometry x="890" y="40" width="30" height="60" as="geometry" />
        </mxCell>
        <mxCell id="JPXaZtPPH-2U7aTtFShc-16" style="edgeStyle=orthogonalEdgeStyle;rounded=0;orthogonalLoop=1;jettySize=auto;html=1;exitX=0;exitY=0.3333333333333333;exitDx=0;exitDy=0;exitPerimeter=0;entryX=1;entryY=0.5;entryDx=0;entryDy=0;" edge="1" parent="1" source="JPXaZtPPH-2U7aTtFShc-2" target="JPXaZtPPH-2U7aTtFShc-7">
          <mxGeometry relative="1" as="geometry" />
        </mxCell>
        <mxCell id="JPXaZtPPH-2U7aTtFShc-17" style="edgeStyle=orthogonalEdgeStyle;rounded=0;orthogonalLoop=1;jettySize=auto;html=1;exitX=0;exitY=1;exitDx=0;exitDy=0;exitPerimeter=0;entryX=1;entryY=0.5;entryDx=0;entryDy=0;" edge="1" parent="1" source="JPXaZtPPH-2U7aTtFShc-2" target="JPXaZtPPH-2U7aTtFShc-12">
          <mxGeometry relative="1" as="geometry" />
        </mxCell>
        <mxCell id="JPXaZtPPH-2U7aTtFShc-2" value="Instrutor" style="shape=umlActor;verticalLabelPosition=bottom;verticalAlign=top;html=1;outlineConnect=0;" vertex="1" parent="1">
          <mxGeometry x="550" y="40" width="30" height="60" as="geometry" />
        </mxCell>
        <mxCell id="JPXaZtPPH-2U7aTtFShc-8" style="edgeStyle=orthogonalEdgeStyle;rounded=0;orthogonalLoop=1;jettySize=auto;html=1;exitX=0.75;exitY=0.1;exitDx=0;exitDy=0;exitPerimeter=0;entryX=0;entryY=0.5;entryDx=0;entryDy=0;" edge="1" parent="1" source="JPXaZtPPH-2U7aTtFShc-3" target="JPXaZtPPH-2U7aTtFShc-4">
          <mxGeometry relative="1" as="geometry" />
        </mxCell>
        <mxCell id="JPXaZtPPH-2U7aTtFShc-9" style="edgeStyle=orthogonalEdgeStyle;rounded=0;orthogonalLoop=1;jettySize=auto;html=1;exitX=1;exitY=0.3333333333333333;exitDx=0;exitDy=0;exitPerimeter=0;entryX=0;entryY=0.5;entryDx=0;entryDy=0;" edge="1" parent="1" source="JPXaZtPPH-2U7aTtFShc-3" target="JPXaZtPPH-2U7aTtFShc-5">
          <mxGeometry relative="1" as="geometry" />
        </mxCell>
        <mxCell id="JPXaZtPPH-2U7aTtFShc-10" style="edgeStyle=orthogonalEdgeStyle;rounded=0;orthogonalLoop=1;jettySize=auto;html=1;exitX=1;exitY=1;exitDx=0;exitDy=0;exitPerimeter=0;entryX=0;entryY=0.5;entryDx=0;entryDy=0;" edge="1" parent="1" source="JPXaZtPPH-2U7aTtFShc-3" target="JPXaZtPPH-2U7aTtFShc-6">
          <mxGeometry relative="1" as="geometry" />
        </mxCell>
        <mxCell id="JPXaZtPPH-2U7aTtFShc-3" value="Aluno" style="shape=umlActor;verticalLabelPosition=bottom;verticalAlign=top;html=1;outlineConnect=0;" vertex="1" parent="1">
          <mxGeometry x="23" y="70" width="30" height="60" as="geometry" />
        </mxCell>
        <mxCell id="JPXaZtPPH-2U7aTtFShc-4" value="matricular-se" style="ellipse;whiteSpace=wrap;html=1;" vertex="1" parent="1">
          <mxGeometry x="153" y="30" width="120" height="80" as="geometry" />
        </mxCell>
        <mxCell id="JPXaZtPPH-2U7aTtFShc-5" value="agendar aulas" style="ellipse;whiteSpace=wrap;html=1;" vertex="1" parent="1">
          <mxGeometry x="153" y="140" width="120" height="80" as="geometry" />
        </mxCell>
        <mxCell id="JPXaZtPPH-2U7aTtFShc-6" value="consultar horários" style="ellipse;whiteSpace=wrap;html=1;" vertex="1" parent="1">
          <mxGeometry x="153" y="250" width="120" height="80" as="geometry" />
        </mxCell>
        <mxCell id="JPXaZtPPH-2U7aTtFShc-7" value="criar treinos" style="ellipse;whiteSpace=wrap;html=1;" vertex="1" parent="1">
          <mxGeometry x="310" y="140" width="120" height="80" as="geometry" />
        </mxCell>
        <mxCell id="JPXaZtPPH-2U7aTtFShc-12" value="Registrar frequência" style="ellipse;whiteSpace=wrap;html=1;" vertex="1" parent="1">
          <mxGeometry x="310" y="240" width="120" height="80" as="geometry" />
        </mxCell>
        <mxCell id="JPXaZtPPH-2U7aTtFShc-13" value="Gerenciar planos" style="ellipse;whiteSpace=wrap;html=1;" vertex="1" parent="1">
          <mxGeometry x="640" y="40" width="120" height="80" as="geometry" />
        </mxCell>
        <mxCell id="JPXaZtPPH-2U7aTtFShc-18" value="Gerenciar pagamentos" style="ellipse;whiteSpace=wrap;html=1;" vertex="1" parent="1">
          <mxGeometry x="640" y="150" width="120" height="80" as="geometry" />
        </mxCell>
        <mxCell id="JPXaZtPPH-2U7aTtFShc-21" value="ALUNO" style="swimlane;fontStyle=1;align=center;verticalAlign=top;childLayout=stackLayout;horizontal=1;startSize=26;horizontalStack=0;resizeParent=1;resizeParentMax=0;resizeLast=0;collapsible=1;marginBottom=0;whiteSpace=wrap;html=1;" vertex="1" parent="1">
          <mxGeometry x="80" y="420" width="160" height="170" as="geometry" />
        </mxCell>
        <mxCell id="JPXaZtPPH-2U7aTtFShc-22" value="Matricula&lt;div&gt;Nome&lt;/div&gt;" style="text;strokeColor=none;fillColor=none;align=left;verticalAlign=top;spacingLeft=4;spacingRight=4;overflow=hidden;rotatable=0;points=[[0,0.5],[1,0.5]];portConstraint=eastwest;whiteSpace=wrap;html=1;" vertex="1" parent="JPXaZtPPH-2U7aTtFShc-21">
          <mxGeometry y="26" width="160" height="64" as="geometry" />
        </mxCell>
        <mxCell id="JPXaZtPPH-2U7aTtFShc-23" value="" style="line;strokeWidth=1;fillColor=none;align=left;verticalAlign=middle;spacingTop=-1;spacingLeft=3;spacingRight=3;rotatable=0;labelPosition=right;points=[];portConstraint=eastwest;strokeColor=inherit;" vertex="1" parent="JPXaZtPPH-2U7aTtFShc-21">
          <mxGeometry y="90" width="160" height="8" as="geometry" />
        </mxCell>
        <mxCell id="JPXaZtPPH-2U7aTtFShc-24" value="Matricular-se&lt;div&gt;Agendar Aulas&lt;/div&gt;&lt;div&gt;Consultar Horários&lt;/div&gt;" style="text;strokeColor=none;fillColor=none;align=left;verticalAlign=top;spacingLeft=4;spacingRight=4;overflow=hidden;rotatable=0;points=[[0,0.5],[1,0.5]];portConstraint=eastwest;whiteSpace=wrap;html=1;" vertex="1" parent="JPXaZtPPH-2U7aTtFShc-21">
          <mxGeometry y="98" width="160" height="72" as="geometry" />
        </mxCell>
        <mxCell id="JPXaZtPPH-2U7aTtFShc-26" value="TREINO" style="swimlane;fontStyle=1;align=center;verticalAlign=top;childLayout=stackLayout;horizontal=1;startSize=26;horizontalStack=0;resizeParent=1;resizeParentMax=0;resizeLast=0;collapsible=1;marginBottom=0;whiteSpace=wrap;html=1;" vertex="1" parent="1">
          <mxGeometry x="310" y="420" width="160" height="98" as="geometry" />
        </mxCell>
        <mxCell id="JPXaZtPPH-2U7aTtFShc-27" value="ID&lt;div&gt;TIPO&lt;/div&gt;" style="text;strokeColor=none;fillColor=none;align=left;verticalAlign=top;spacingLeft=4;spacingRight=4;overflow=hidden;rotatable=0;points=[[0,0.5],[1,0.5]];portConstraint=eastwest;whiteSpace=wrap;html=1;" vertex="1" parent="JPXaZtPPH-2U7aTtFShc-26">
          <mxGeometry y="26" width="160" height="64" as="geometry" />
        </mxCell>
        <mxCell id="JPXaZtPPH-2U7aTtFShc-28" value="" style="line;strokeWidth=1;fillColor=none;align=left;verticalAlign=middle;spacingTop=-1;spacingLeft=3;spacingRight=3;rotatable=0;labelPosition=right;points=[];portConstraint=eastwest;strokeColor=inherit;" vertex="1" parent="JPXaZtPPH-2U7aTtFShc-26">
          <mxGeometry y="90" width="160" height="8" as="geometry" />
        </mxCell>
        <mxCell id="JPXaZtPPH-2U7aTtFShc-30" value="MATRICULA" style="swimlane;fontStyle=1;align=center;verticalAlign=top;childLayout=stackLayout;horizontal=1;startSize=26;horizontalStack=0;resizeParent=1;resizeParentMax=0;resizeLast=0;collapsible=1;marginBottom=0;whiteSpace=wrap;html=1;" vertex="1" parent="1">
          <mxGeometry x="530" y="420" width="160" height="98" as="geometry" />
        </mxCell>
        <mxCell id="JPXaZtPPH-2U7aTtFShc-31" value="Data&lt;div&gt;Inicio&amp;nbsp;&lt;/div&gt;&lt;div&gt;Plano&lt;/div&gt;" style="text;strokeColor=none;fillColor=none;align=left;verticalAlign=top;spacingLeft=4;spacingRight=4;overflow=hidden;rotatable=0;points=[[0,0.5],[1,0.5]];portConstraint=eastwest;whiteSpace=wrap;html=1;" vertex="1" parent="JPXaZtPPH-2U7aTtFShc-30">
          <mxGeometry y="26" width="160" height="64" as="geometry" />
        </mxCell>
        <mxCell id="JPXaZtPPH-2U7aTtFShc-32" value="" style="line;strokeWidth=1;fillColor=none;align=left;verticalAlign=middle;spacingTop=-1;spacingLeft=3;spacingRight=3;rotatable=0;labelPosition=right;points=[];portConstraint=eastwest;strokeColor=inherit;" vertex="1" parent="JPXaZtPPH-2U7aTtFShc-30">
          <mxGeometry y="90" width="160" height="8" as="geometry" />
        </mxCell>
      </root>
    </mxGraphModel>
  </diagram>
</mxfile>
